<svg width="71" height="72" viewBox="0 0 71 72" fill="none" xmlns="http://www.w3.org/2000/svg">
<g clip-path="url(#clip0_82_104)">
<path d="M24.2385 32.4746C24.4489 32.8108 24.7181 33.1415 24.9929 33.531C25.7719 32.9813 26.5565 32.4905 27.3355 31.9408C24.8451 28.2588 22.4135 24.5711 19.9231 20.8891L25.7824 16.9431C28.2784 20.684 30.7689 24.366 33.2649 28.1069C34.2681 27.417 35.218 26.7916 36.168 26.1661C34.3618 23.4284 32.5613 20.7496 30.7608 18.0707C32.3244 17.0302 33.8348 16.0542 35.3984 15.0137C36.1584 16.129 36.8483 17.1321 37.5438 18.1942C39.0639 20.4247 40.5307 22.7197 42.0508 24.9502C42.1265 25.1211 42.4965 25.2639 42.6086 25.1938C43.3932 24.703 44.1722 24.1533 44.9512 23.6036C43.075 20.7538 41.2099 18.0217 39.3337 15.1719C40.0594 14.6867 40.732 14.266 41.4577 13.7809C42.2822 14.9493 43.0479 16.1235 43.8079 17.2387C45.0941 16.4029 46.2682 15.6373 47.4367 14.8128L45.9643 12.4589C45.1264 13.0142 44.4595 13.4938 43.6693 13.9257C42.769 12.5863 41.9389 11.359 41.1087 10.1316C38.9847 11.5227 36.9784 12.9025 34.9132 14.288C34.3579 13.4501 33.8082 12.6711 33.2529 11.8333C30.7982 13.4936 28.3968 15.0894 25.9364 16.6908C25.4513 15.965 24.9661 15.2393 24.4164 14.4603C22.3512 15.8457 20.3981 17.1611 18.3861 18.482C15.8957 14.8 13.4641 11.1124 10.9737 7.43036C10.1891 7.92117 9.40449 8.41199 8.67873 8.89718L9.74737 10.7551C14.5404 18.0183 19.3866 25.217 24.2385 32.4746Z" fill="#00C437"/>
<path d="M60.0786 43.7774C60.7685 44.7805 61.464 45.8426 62.1596 46.9046C62.7794 47.7957 63.3403 48.6924 63.9657 49.6423C56.6432 54.5598 49.3856 59.4117 42.0809 64.268C40.6955 62.2029 39.2568 60.2022 37.8713 58.137C36.9803 58.7568 36.1424 59.3121 35.3046 59.8674C34.1996 58.2505 33.1535 56.6281 32.0485 55.0113C31.3227 55.4964 30.6502 55.9171 29.9244 56.4023C28.4689 54.2251 27.0189 52.1066 25.6279 49.9826C24.2296 50.8885 22.949 51.7831 21.6096 52.6834C20.5747 51.1786 19.6688 49.7803 18.6985 48.3288C17.9138 48.8196 17.1937 49.3637 16.4091 49.8545C17.8002 51.9786 19.18 53.9849 20.5711 56.1089C21.8573 55.2732 23.0846 54.443 24.3119 53.6129C25.3468 55.1176 26.3228 56.628 27.2932 58.0795L29.4705 56.6239C30.5811 58.2996 31.6861 59.9165 32.7322 61.5389C33.57 60.9836 34.2958 60.4984 35.1393 60.002C37.0744 62.8462 38.9506 65.696 40.8213 68.4869C49.8666 62.4543 58.7999 56.4918 67.7864 50.4648C66.6113 48.7359 65.5007 47.0602 64.4546 45.4378L62.1576 41.9154C61.4851 42.3361 60.877 42.8101 60.2045 43.2308C59.9747 43.3121 59.8683 43.4411 60.0786 43.7774Z" fill="#00C437"/>
<path d="M19.214 40.6767C19.5645 41.2372 19.9039 41.6799 20.1843 42.1282C21.3651 43.916 22.6103 45.757 23.8499 47.5392C23.9256 47.7101 24.2956 47.8529 24.3489 47.7884C25.0214 47.3677 25.6883 46.8882 26.4141 46.403C18.7913 35.015 11.2274 23.6215 3.60458 12.2335C2.82559 12.7832 2.09983 13.2684 1.31522 13.7592C6.79252 21.9667 12.2642 30.1154 17.7415 38.3229C16.3964 39.1643 15.1691 39.9944 13.9361 40.7657C14.427 41.5503 14.9178 42.3349 15.4142 43.1784C16.7004 42.3426 17.9748 41.508 19.214 40.6767Z" fill="#00C437"/>
<path d="M53.6915 24.1933C55.6378 27.1551 57.6431 30.1114 59.6483 33.0677C60.545 32.5067 61.3829 31.9514 62.274 31.3316C58.1821 25.1893 54.0902 19.047 49.9395 12.9103C49.0485 13.5301 48.1574 14.1499 47.2607 14.7108L47.6645 15.2068C49.7342 18.2162 51.7451 21.2314 53.6915 24.1933Z" fill="#00C437"/>
<path d="M12.1083 48.4839C11.4829 47.534 10.8575 46.584 10.2377 45.693C9.89273 45.1914 9.54215 44.6309 9.19157 44.0705C10.0294 43.5152 10.814 43.0244 11.5342 42.4803C12.2543 41.9363 13.0921 41.381 13.8179 40.8958C13.2037 40.0636 12.6484 39.2257 12.0286 38.3347C9.56832 39.9361 7.23136 41.5851 4.77105 43.1865C6.43134 45.6412 8.02713 48.0427 9.62856 50.503C9.74065 50.4329 9.79388 50.3684 9.85274 50.3627C10.6374 49.8719 11.3631 49.3867 12.1534 48.9548C12.1998 48.7979 12.1837 48.6291 12.1083 48.4839V48.4839Z" fill="#00C437"/>
<path d="M64.5058 40.3841C62.8455 37.9294 61.2497 35.528 59.6539 33.1265C58.8749 33.6762 58.1492 34.1614 57.3646 34.6522C57.8554 35.4368 58.3349 36.1037 58.8201 36.8295C59.9307 38.5052 61.1002 40.1752 62.2108 41.8509C62.9954 41.3601 63.7212 40.8749 64.5058 40.3841Z" fill="#00C437"/>
<path d="M8.5728 8.90731C8.46906 8.8336 8.37972 8.74148 8.30922 8.63553C7.82966 7.96863 7.40896 7.29611 6.99389 6.68244C5.3182 7.79305 3.70136 8.89803 2.08453 10.003C2.57534 10.7876 3.06053 11.5134 3.61021 12.2924C5.28027 11.1229 6.95596 10.0123 8.5728 8.90731Z" fill="#00C437"/>
<path d="M12.2772 48.8835C12.3417 48.9368 12.4651 48.9844 12.5352 49.0965C13.0204 49.8222 13.57 50.6012 14.0608 51.3858C14.8398 50.8361 15.6245 50.3453 16.4034 49.7956C15.7836 48.9046 15.2283 48.0667 14.6029 47.1168C13.8178 47.7264 13.0506 48.275 12.2772 48.8835Z" fill="#00C437"/>
<path d="M20.5728 39.3588L26.3409 45.6378L23.6759 40.1312L14.9963 28.2503L6.51471 14.0935L4.96908 10.9745L8.48529 7.37135L9.99053 7.58378L17.099 15.4571L20.4467 18.1662L24.6334 15.9839L27.153 15.6241L29.9429 18.0895L32.806 14.4895L36.4886 13.2463L40.6389 11.3051L43.4165 11.1583L44.5916 12.8872L45.5983 14.0976L48.684 13.4461L50.6832 15.0962L59.4529 27.9188L61.0128 31.8086L63.2325 38.2488L63.5697 40.533L63.1864 42.114L66.8467 48.7134L42.5129 65.0583L38.4266 58.9748L36.6102 58.614L33.1335 55.7984L31.3309 54.9611L27.475 50.0435L23.5125 52.0856L20.5517 49.6959L17.8212 48.4721L14.7181 47.6998L13.6361 47.5656L9.55087 43.9767L11.0741 40.0297L13.1761 39.6504L15.2418 39.5123L17.5685 40.2401L20.037 38.1033L20.5728 39.3588Z" fill="white"/>
<path d="M25.6092 31.1556C25.8195 31.4918 26.0887 31.8225 26.3636 32.212C27.1426 31.6623 27.9272 31.1715 28.7062 30.6218C26.2158 26.9398 23.7842 23.2521 21.2938 19.5701L27.153 15.6241C29.6491 19.365 32.1395 23.047 34.6356 26.7879C35.6387 26.098 36.5887 25.4725 37.5386 24.8471C35.7325 22.1094 33.932 19.4306 32.1314 16.7517C33.695 15.7112 35.2054 14.7352 36.769 13.6947C37.529 14.81 38.2189 15.8131 38.9145 16.8751C40.4345 19.1056 41.9014 21.4006 43.4214 23.6311C43.4972 23.8021 43.8672 23.9449 43.9793 23.8748C44.7639 23.384 45.5429 22.8343 46.3219 22.2846C44.4456 19.4348 42.5806 16.7027 40.7043 13.8529C41.4301 13.3677 42.1026 12.947 42.8284 12.4618C43.6529 13.6303 44.4186 14.8044 45.1786 15.9197C46.4648 15.0839 47.6389 14.3182 48.8074 13.4937L47.3349 11.1399C46.4971 11.6952 45.8302 12.1748 45.0399 12.6067C44.1397 11.2673 43.3095 10.0399 42.4794 8.8126C40.3553 10.2037 38.349 11.5835 36.2838 12.9689C35.7285 12.1311 35.1788 11.3521 34.6235 10.5143C32.1689 12.1746 29.7674 13.7703 27.3071 15.3718C26.8219 14.646 26.3367 13.9203 25.7871 13.1413C23.7219 14.5267 21.7688 15.8421 19.7568 17.163C17.2664 13.481 14.8348 9.79334 12.3444 6.11132C11.5598 6.60214 10.7752 7.09296 10.0494 7.57815L11.118 9.43604C15.9111 16.6993 20.7573 23.898 25.6092 31.1556Z" fill="#121212"/>
<path d="M61.4201 42.4017C62.11 43.4049 62.8056 44.4669 63.5011 45.5289C64.1209 46.42 64.6818 47.3167 65.3072 48.2667C57.9964 53.183 50.7389 58.0349 43.4224 62.8924C42.037 60.8272 40.5983 58.8265 39.2128 56.7613C38.3218 57.3811 37.4839 57.9364 36.6461 58.4918C35.5411 56.8749 34.495 55.2525 33.39 53.6356C32.6642 54.1208 31.9917 54.5415 31.2659 55.0267C29.8221 52.8483 28.3604 50.731 26.9694 48.607C25.5711 49.5128 24.2905 50.4075 22.9511 51.3077C21.9162 49.803 21.0103 48.4047 20.0399 46.9532C19.2553 47.444 18.5352 47.9881 17.7506 48.4789C19.1417 50.6029 20.5215 52.6092 21.9126 54.7333C23.1988 53.8975 24.4261 53.0674 25.6534 52.2372C26.6883 53.742 27.6643 55.2524 28.6347 56.7039L30.812 55.2483C31.9226 56.924 33.0276 58.5408 34.0737 60.1633C34.9115 59.608 35.6373 59.1228 36.4808 58.6264C38.4159 61.4705 40.2921 64.3203 42.1628 67.1113C51.2081 61.0787 60.1414 55.1162 69.1279 49.0892C67.9528 47.3603 66.8422 45.6846 65.7961 44.0621L63.4991 40.5398C62.8266 40.9605 62.2186 41.4344 61.546 41.8551C61.3336 41.9942 61.2272 42.1232 61.4201 42.4017Z" fill="#121212"/>
<path d="M20.5728 39.3588C20.9234 39.9193 21.2627 40.362 21.5432 40.8103C22.7239 42.5981 23.9691 44.4391 25.2087 46.2213C25.2845 46.3922 25.6545 46.535 25.7077 46.4706C26.3803 46.0498 27.0472 45.5703 27.7729 45.0851C20.1502 33.6972 12.5745 22.3047 4.95168 10.9167C4.1727 11.4664 3.44694 11.9516 2.66232 12.4424C8.13963 20.6499 13.6113 28.7986 19.0886 37.0061C17.7435 37.8475 16.5162 38.6777 15.2832 39.4489C15.7741 40.2336 16.2649 41.0182 16.7613 41.8616C18.0593 41.0247 19.3455 40.189 20.5728 39.3588Z" fill="#121212"/>
<path d="M55.0504 22.8754C56.9967 25.8372 59.002 28.7935 61.0072 31.7498C61.9039 31.1888 62.7418 30.6335 63.6328 30.0137C59.541 23.8714 55.4491 17.7291 51.2984 11.5924C50.4073 12.2122 49.5163 12.832 48.6196 13.3929L49.0234 13.8889C51.0931 16.8983 53.104 19.9135 55.0504 22.8754Z" fill="#121212"/>
<path d="M13.479 47.1649C12.8536 46.215 12.2281 45.265 11.6084 44.374C11.2634 43.8724 10.9128 43.3119 10.5622 42.7515C11.4001 42.1962 12.1847 41.7054 12.9048 41.1613C13.625 40.6173 14.4628 40.062 15.1886 39.5768C14.5744 38.7446 14.0191 37.9067 13.3993 37.0156C10.939 38.6171 8.60203 40.2661 6.14172 41.8675C7.802 44.3222 9.3978 46.7237 10.9992 49.184C11.1113 49.1138 11.1645 49.0494 11.2234 49.0437C12.008 48.5529 12.7338 48.0677 13.524 47.6358C13.5705 47.4789 13.5543 47.3101 13.479 47.1649V47.1649Z" fill="#121212"/>
<path d="M65.853 39.0673C64.1927 36.6127 62.5969 34.2112 61.0011 31.8098C60.2221 32.3594 59.4963 32.8446 58.7117 33.3354C59.2025 34.12 59.6821 34.7869 60.1673 35.5127C61.2779 37.1884 62.4474 38.8585 63.558 40.5342C64.3544 40.0422 65.0801 39.557 65.853 39.0673Z" fill="#121212"/>
<path d="M9.93168 7.58941C9.82795 7.51569 9.73861 7.42358 9.6681 7.31763C9.18855 6.65073 8.76785 5.9782 8.35277 5.36453C6.67708 6.47514 5.06025 7.58012 3.44341 8.68511C3.93423 9.46972 4.41942 10.1955 4.9691 10.9745C6.62739 9.80612 8.30308 8.69551 9.93168 7.58941Z" fill="#121212"/>
<path d="M13.6361 47.5656C13.7006 47.6189 13.8239 47.6665 13.8941 47.7786C14.3792 48.5043 14.9289 49.2833 15.4197 50.0679C16.1987 49.5183 16.9833 49.0274 17.7623 48.4778C17.1425 47.5867 16.5872 46.7488 15.9618 45.7989C15.1884 46.4074 14.4095 46.9571 13.6361 47.5656Z" fill="#121212"/>
</g>
<defs>
<clipPath id="clip0_82_104">
<rect width="64.153" height="65.9268" fill="white" transform="translate(0.583435 6.10757) rotate(-5.46301)"/>
</clipPath>
</defs>
</svg>
